<?xml version="1.0" encoding="UTF-8" standalone="no"?>
<!-- Created with Inkscape (http://www.inkscape.org/) -->

<svg
   width="236mm"
   height="282mm"
   viewBox="0 0 236 281.99999"
   version="1.1"
   id="svg1"
   xml:space="preserve"
   inkscape:version="1.4.2 (ebf0e940, 2025-05-08)"
   sodipodi:docname="Red_Logo.svg"
   xmlns:inkscape="http://www.inkscape.org/namespaces/inkscape"
   xmlns:sodipodi="http://sodipodi.sourceforge.net/DTD/sodipodi-0.dtd"
   xmlns="http://www.w3.org/2000/svg"
   xmlns:svg="http://www.w3.org/2000/svg"><sodipodi:namedview
     id="namedview1"
     pagecolor="#ffffff"
     bordercolor="#000000"
     borderopacity="0.25"
     inkscape:showpageshadow="2"
     inkscape:pageopacity="0.0"
     inkscape:pagecheckerboard="0"
     inkscape:deskcolor="#d1d1d1"
     inkscape:document-units="mm"
     inkscape:zoom="0.5"
     inkscape:cx="696"
     inkscape:cy="460"
     inkscape:window-width="1920"
     inkscape:window-height="1027"
     inkscape:window-x="1512"
     inkscape:window-y="25"
     inkscape:window-maximized="1"
     inkscape:current-layer="layer1"
     showgrid="false"
     showguides="true"><inkscape:grid
       id="grid1"
       units="mm"
       originx="-8.4666672"
       originy="-16.933338"
       spacingx="1"
       spacingy="0.99999995"
       empcolor="#0099e5"
       empopacity="0.30196078"
       color="#0099e5"
       opacity="0.14901961"
       empspacing="5"
       enabled="true"
       visible="false" /></sodipodi:namedview><defs
     id="defs1" /><g
     inkscape:label="Layer 1"
     inkscape:groupmode="layer"
     id="layer1"
     transform="translate(-10.58663,-29.703607)"><path
       style="fill:#901a1e;fill-opacity:1"
       d="m 59.889972,259.52918 c -1.25742,-0.5711 -1.96431,-1.79921 -1.96431,-3.41271 0,-0.58082 0.38101,-2.58689 0.84668,-4.45793 0.74742,-3.00308 0.84367,-3.80515 0.82097,-6.84149 -0.0148,-1.98454 -0.3854,-6.57352 -0.87599,-10.84791 -1.5562,-13.55904 -1.40314,-19.03275 0.81199,-29.03905 1.39872,-6.31838 1.52933,-8.38751 0.79739,-12.63283 -1.03292,-5.99097 -3.88617,-18.35326 -4.28033,-18.54535 -0.20331,-0.0991 -1.02451,-0.46152 -1.82487,-0.80542 -2.11733,-0.90976 -4.93592,-3.79634 -6.17708,-6.32607 -1.24571,-2.53902 -1.4314,-4.08759 -1.14854,-9.57855 0.21976,-4.26612 0.19782,-4.61651 -0.58802,-9.39271 -1.73684,-10.55612 -2.58968,-19.43773 -2.31042,-24.0608 0.0896,-1.48244 0.46141,-4.22088 0.82635,-6.08542 0.36494,-1.86455 1.26153,-8.27164 1.99242,-14.23801 0.7309,-5.966375 1.51075,-11.859969 1.73302,-13.096896 0.45836,-2.5508 1.43581,-4.836293 2.86402,-6.696708 l 0.97706,-1.27275 -0.67191,-1.946693 c -1.2618,-3.655764 -0.80455,-9.039485 1.03423,-12.177119 0.40563,-0.692162 2.02046,-2.598305 3.5885,-4.235874 3.73801,-3.90375 4.80654,-5.961587 5.42506,-10.447939 0.84207,-6.107907 2.1477,-8.940081 5.79828,-12.577612 1.93508,-1.928162 2.83519,-2.605084 4.64869,-3.496005 3.16205,-1.553424 4.86094,-1.950876 9.01954,-2.110094 5.53212,-0.211805 9.45283,0.804908 12.73227,3.301707 3.0591,2.329048 4.539345,5.274271 4.974845,9.898392 0.23427,2.487548 0.44265,3.360354 1.221393,5.115904 1.62516,3.663695 1.75587,4.049812 1.5837,4.678566 -0.0923,0.337205 -0.69362,0.99709 -1.33619,1.466409 -1.087963,0.79461 -1.180473,0.958417 -1.344903,2.38125 -0.49041,4.243497 -1.633005,7.057309 -3.282255,8.083023 -0.8036,0.499782 -1.29609,0.584127 -3.26163,0.558593 l -2.3151,-0.03008 v 1.52674 1.526739 l 1.91823,0.795692 c 1.05502,0.437631 3.46604,1.354123 5.35781,2.036648 5.529898,1.995114 7.866708,3.876988 9.895778,7.969268 1.05138,2.120437 1.59541,4.171908 3.18283,12.001939 1.67366,8.25544 4.38227,19.09378 5.15751,20.63755 0.72916,1.45199 6.57223,11.86895 7.40355,13.19899 0.32873,0.52592 1.40571,2.48397 2.39328,4.3512 0.98756,1.86724 1.89408,3.29599 2.01449,3.175 0.12042,-0.12098 1.34085,-2.60122 2.71207,-5.51164 1.37123,-2.91041 3.74785,-7.80917 5.28138,-10.88611 1.64672,-3.30407 2.90223,-6.17461 3.06665,-7.01148 0.15313,-0.77936 0.82865,-4.27451 1.50116,-7.76702 1.3898,-7.217537 3.6226,-17.344935 4.25832,-19.314615 0.77712,-2.407773 2.55274,-5.484605 4.15133,-7.193497 1.19647,-1.279034 2.12105,-1.950367 3.94056,-2.861215 1.30751,-0.654544 2.52413,-1.190079 2.70358,-1.190079 0.58135,0 6.29246,-1.868008 9.07878,-2.969512 l 2.71198,-1.072116 v -1.286478 c 0,-1.485567 0.14992,-1.43776 -3.12616,-0.996868 -1.92059,0.258471 -2.25884,0.237135 -3.14598,-0.198438 -2.04049,-1.001843 -3.23827,-4.040097 -3.24826,-8.239415 -0.004,-1.883418 -0.0246,-1.941535 -0.82441,-2.38125 -2.54899,-1.401387 -2.60521,-1.839499 -0.76769,-5.981641 1.15096,-2.594478 1.32292,-3.208222 1.32292,-4.721589 0,-7.881656 4.60267,-13.929263 12.17083,-15.991665 2.36226,-0.643739 7.92462,-0.648767 10.31875,-0.0093 6.27629,1.676318 10.95763,6.195386 12.29505,11.868861 1.13921,4.832654 -0.0598,10.331428 -3.28217,15.052185 -2.12622,3.114908 -2.18168,3.315411 -2.08665,7.543055 0.0753,3.351881 0.14929,3.877705 0.63798,4.537205 0.59199,0.798909 0.64961,0.822449 10.03058,4.098024 2.91042,1.016236 6.06557,2.305799 7.01146,2.865695 4.12611,2.442357 6.84497,6.668975 7.65892,11.906189 0.14701,0.945885 0.62773,6.779948 1.06827,12.964594 0.44055,6.18467 1.04282,13.85246 1.3384,17.03957 0.45937,4.95332 0.49845,6.38 0.26911,9.82547 -0.29609,4.44815 -0.97286,10.25731 -2.01784,17.32043 -0.48541,3.2809 -0.74455,6.44213 -0.88925,10.84791 -0.17694,5.38754 -0.28257,6.44734 -0.79109,7.9375 -1.43411,4.20244 -4.77566,8.222 -8.17955,9.83918 l -1.84478,0.87645 -0.295,2.91042 c -1.30991,12.92343 -1.34781,14.57253 -0.43479,18.9177 0.35164,1.67349 0.94621,4.48577 1.32126,6.24951 1.48014,6.96059 1.39476,11.46733 -0.52822,27.88174 -0.82313,7.02623 -1.14053,10.63792 -1.02308,11.64167 0.0936,0.80036 0.63393,3.45195 1.20062,5.89241 1.50406,6.47725 1.341,8.18442 -0.87792,9.1915 -1.03398,0.46929 -1.77363,0.5154 -8.35283,0.52069 -7.74644,0.006 -8.54755,-0.10845 -9.41578,-1.34802 -0.24518,-0.35005 -0.43102,-1.13316 -0.43046,-1.81389 0.001,-1.31222 0.48384,-2.27226 2.1245,-4.22492 2.50194,-2.97771 3.59886,-6.56569 3.35423,-10.97157 -0.17721,-3.19188 -0.91785,-8.34337 -2.17657,-15.13904 -1.74828,-9.43883 -1.97247,-11.09253 -2.21933,-16.3707 -0.21457,-4.5875 -0.35737,-5.70889 -1.0731,-8.427 -1.23396,-4.68613 -2.01217,-9.34738 -3.71394,-22.24545 -0.4402,-3.33642 -0.84245,-6.10829 -0.89389,-6.15973 -0.0514,-0.0514 -0.15815,0.35663 -0.23714,0.90683 -0.079,0.55019 -0.99922,6.06051 -2.04496,12.24514 -1.86893,11.05296 -1.89874,11.30347 -1.74735,14.68438 0.5968,13.32805 0.52271,15.01785 -0.92151,21.01716 -2.78935,11.58701 -4.73943,21.35501 -4.73943,23.73996 0,0.86635 0.23813,2.87127 0.52917,4.45537 0.63161,3.4378 0.65752,4.63111 0.13851,6.37881 -0.44927,1.51286 -1.50096,2.64583 -2.80252,3.01911 -0.53956,0.15475 -6.53854,0.25937 -14.87139,0.25937 -14.88226,0 -15.37998,-0.0398 -16.04539,-1.28312 -0.51792,-0.96775 -0.34384,-2.57614 0.37074,-3.42537 0.52257,-0.62104 1.12583,-0.89804 2.95491,-1.35678 1.26406,-0.31704 3.36281,-1.11017 4.66389,-1.76252 3.06369,-1.5361 10.06664,-6.25861 10.88476,-7.34024 1.41681,-1.87316 1.40863,-1.67573 1.14703,-27.69446 -0.17474,-17.37828 -0.51627,-27.19105 -1.10967,-31.88229 -0.63098,-4.98842 -0.93628,-11.51245 -0.93481,-19.97605 0.002,-10.71518 0.54146,-17.62433 2.50025,-32.01458 0.36645,-2.69213 0.66549,-6.08541 0.66454,-7.54062 -0.002,-2.79334 -0.39644,-8.00463 -0.7537,-9.95345 l -0.21249,-1.15907 -0.72353,2.38125 c -1.07292,3.53115 -2.17865,6.57375 -2.92237,8.04142 -0.3629,0.71614 -3.70652,5.85601 -7.43028,11.42193 -3.72375,5.56591 -7.02131,10.60738 -7.3279,11.20326 -0.9132,1.77486 -0.80732,4.07142 0.30003,6.50736 1.76108,3.87404 1.32181,5.70356 -2.29167,9.54472 -3.2106,3.41288 -5.82756,4.50712 -7.54614,3.15528 -0.37,-0.29104 -0.98728,-0.52916 -1.37173,-0.52916 -0.80289,0 -2.26026,-0.68449 -2.26026,-1.06158 0,-0.13983 -0.39673,-0.42 -0.88162,-0.6226 -1.05126,-0.43925 -1.92622,-1.47978 -2.16731,-2.57745 -0.10686,-0.48655 -0.40975,-0.88641 -0.77731,-1.02615 -2.27706,-0.86573 -2.86918,-4.78404 -1.30189,-8.61508 0.97106,-2.37359 0.99965,-4.03518 0.0989,-5.74622 -0.6874,-1.30573 -2.53277,-3.92153 -9.28349,-13.15926 -4.38803,-6.00461 -5.9449,-8.83499 -7.61558,-13.84508 -0.57394,-1.72121 -1.09917,-3.18509 -1.16713,-3.25306 -0.13589,-0.13589 -0.584393,2.17731 -0.980993,5.0596 -0.601,4.36774 -0.39006,6.52749 1.299363,13.30346 0.86058,3.45164 1.75159,7.22821 1.98003,8.39238 1.22402,6.238 1.67605,13.6952 1.24296,20.5052 -0.53168,8.36014 -1.21616,12.4312 -3.975143,23.64263 -2.395927,9.73617 -3.284067,15.50329 -4.121127,26.7605 -0.22723,3.05594 -0.70488,8.94953 -1.06144,13.09687 -0.35913,4.17716 -0.64766,9.4879 -0.64687,11.90625 0.002,6.0641 0.19251,6.4162 5.356117,9.89874 3.208063,2.16363 6.099493,3.63235 8.669693,4.40383 2.50094,0.75069 3.33506,1.33798 3.71863,2.61821 0.2603,0.86879 0.232,1.16944 -0.19179,2.03723 -0.96316,1.97224 -0.74019,1.9432 -14.92113,1.94366 -14.35688,4.7e-4 -13.86985,0.0719 -15.04377,-2.20789 -0.78222,-1.51913 -0.86286,-4.35226 -0.20983,-7.37169 0.7337,-3.39245 0.64495,-4.47948 -1.54009,-18.86271 -1.70306,-11.21053 -1.81067,-12.80806 -1.32703,-19.69884 0.22322,-3.18026 0.5154,-6.65478 0.6493,-7.72114 0.1339,-1.06637 0.19959,-1.98271 0.14599,-2.03632 -0.27624,-0.27624 -2.03049,6.23782 -2.3998,8.91115 -0.48088,3.48102 -1.50492,9.38483 -3.70132,21.3389 -1.87396,10.19913 -2.01855,12.91055 -0.81083,15.20571 0.93372,1.77446 3.47686,4.47509 5.53612,5.87895 0.84438,0.57564 1.64805,1.34334 1.78594,1.70601 0.37384,0.98328 0.30359,2.40104 -0.16375,3.30477 -0.756,1.46194 -1.37291,1.55411 -10.35882,1.5477 -7.35384,-0.005 -8.24912,-0.0533 -9.22284,-0.4956 z m 16.74522,-2.85746 c 0.12315,-0.32092 -0.12375,-0.6754 -0.8682,-1.24651 -0.57216,-0.43893 -1.93325,-1.69719 -3.02466,-2.79614 -3.23975,-3.26213 -4.47065,-6.31151 -4.09849,-10.1534 0.1008,-1.04057 0.88007,-5.82101 1.73171,-10.6232 0.85164,-4.80219 2.03716,-11.64828 2.63449,-15.21354 1.376,-8.21293 1.28913,-7.85364 3.45451,-14.2875 2.64572,-7.86107 2.74559,-8.64157 3.31567,-25.91072 l 0.47542,-14.40135 -4.43525,-4.25178 -4.43525,-4.25178 0.0731,-6.44043 c 0.0693,-6.10144 0.0466,-6.45529 -0.43129,-6.72273 -2.18447,-1.22249 -2.80219,-4.33191 -1.23106,-6.19679 2.33124,-2.76709 6.28052,-1.89349 7.44926,1.64782 0.44214,1.3397 -0.21489,2.98338 -1.67836,4.1987 l -1.1047,0.9174 v 5.73994 5.73994 l 3.04271,2.89302 3.04271,2.89302 0.13229,-14.1089 c 0.0972,-10.3677 0.21745,-14.25739 0.45343,-14.6689 0.17662,-0.308 0.9803,-1.16243 1.78594,-1.89874 l 1.46479,-1.33875 -0.0164,-10.00752 c -0.009,-5.50413 -0.1014,-10.84096 -0.20535,-11.85961 -0.18479,-1.81094 -0.23228,-1.90494 -2.13679,-4.22944 l -1.94781,-2.377326 0.13646,-4.544573 0.13645,-4.544573 -0.95987,-0.618724 c -1.3494,-0.86982 -1.94023,-2.132165 -1.81173,-3.870843 0.0617,-0.835441 0.31398,-1.689033 0.62545,-2.116667 0.60423,-0.829553 2.56756,-1.907256 3.47458,-1.907256 1.21612,0 3.20388,1.079219 3.81803,2.072932 1.20562,1.950731 0.48595,5.033153 -1.40319,6.010068 l -0.76821,0.397255 v 4.437426 4.437425 l 1.09029,1.045884 c 0.59967,0.575236 1.4331,1.510232 1.85209,2.077772 0.70766,0.95857 0.76186,1.20297 0.76286,3.4396 5.9e-4,1.32424 0.0777,3.91091 0.17145,5.74814 l 0.17038,3.34042 2.52406,-2.14979 c 1.38823,-1.18239 2.87776,-2.45772 3.31006,-2.83406 l 0.786,-0.68427 0.12534,-6.08202 0.12533,-6.081994 -0.94681,-0.558631 c -1.08555,-0.640495 -2.03355,-2.291636 -2.03355,-3.541873 0,-2.063515 2.20636,-4.467439 4.08786,-4.45389 1.03196,0.0074 2.757525,0.802 3.502785,1.612931 1.594703,1.735225 1.12064,5.104687 -0.89331,6.349381 l -0.876505,0.541702 v 6.737334 c 0,6.6901 -0.004,6.74144 -0.61006,7.32064 -0.33553,0.3208 -2.53683,2.19063 -4.89177,4.15516 l -4.28171,3.57188 -0.003,5.20795 -0.003,5.20794 -1.84952,1.67123 -1.84951,1.67123 -0.003,10.2526 c -0.001,5.63893 0.0867,10.24673 0.19587,10.23955 0.10914,-0.007 1.34715,-1.1085 2.75112,-2.44739 l 2.55268,-2.43435 0.13414,-5.96482 c 0.0884,-3.92874 0.0391,-6.13462 -0.14424,-6.46226 -0.80152,-1.43224 0.13406,-3.05104 1.76333,-3.05104 1.24534,0 2.10495,0.89352 1.87783,1.95191 -0.33302,1.55193 -0.61053,6.11349 -0.63859,10.4971 l -0.028,4.37922 -4.19973,3.92666 -4.19974,3.92667 -0.17611,7.56911 c -0.40571,17.43686 -0.97054,29.88541 -1.91007,42.09724 -0.89502,11.63312 -0.82063,13.42933 1.0902,26.32605 2.13509,14.41028 2.19245,15.16454 1.47871,19.44181 -0.59741,3.58018 -0.55835,4.78818 0.18199,5.62746 0.37741,0.42785 1.29838,0.46302 12.12577,0.46302 6.444528,0 11.780188,-0.10165 11.856968,-0.2259 0.16623,-0.26895 -0.68778,-0.68477 -2.26691,-1.10377 -2.71898,-0.72144 -9.846308,-4.92679 -12.431268,-7.33484 -2.01676,-1.87874 -2.4432,-3.18929 -2.56144,-7.87195 -0.1063,-4.21017 0.12311,-8.06831 1.16392,-19.57369 0.35516,-3.92605 0.76398,-9.30649 0.90849,-11.95654 0.14451,-2.65005 0.43566,-5.64026 0.64699,-6.64491 0.21133,-1.00464 0.63684,-3.60139 0.94558,-5.77054 0.30873,-2.16915 1.31796,-6.98 2.24274,-10.69078 2.832405,-11.3654 3.509468,-15.78312 3.750898,-24.47396 0.26082,-9.389 -0.38396,-14.51996 -3.238128,-25.76809 -1.57778,-6.21794 -1.70469,-6.93132 -1.70469,-9.58205 0,-3.73165 0.568,-7.69545 1.842725,-12.85944 1.43447,-5.81113 2.32704,-8.50406 3.062423,-9.23945 0.65058,-0.65059 1.5554,-0.82575 1.84501,-0.35716 0.22015,0.3562 -0.34428,4.95217 -0.68675,5.59209 -0.19481,0.364 -0.11221,1.05117 0.3051,2.53841 1.22707,4.37301 3.52264,10.87592 4.50659,12.76632 0.56807,1.09141 3.30614,5.08 6.08457,8.86354 8.53404,11.62123 9.25766,12.84791 9.27346,15.72039 0.006,1.14134 -0.21705,1.98915 -0.98154,3.7261 -1.13456,2.57783 -1.39878,4.12211 -0.83411,4.87537 0.36116,0.4818 0.40003,0.45316 0.71834,-0.52917 0.95262,-2.93985 2.10076,-4.34667 4.01569,-4.92039 0.85504,-0.25617 1.10138,-0.24231 1.42384,0.0802 0.57829,0.57829 0.0179,1.93616 -1.07881,2.61395 -1.02373,0.63269 -1.85956,2.20126 -2.30528,4.32624 -0.47935,2.28534 0.0581,2.46325 0.96874,0.32067 1.19272,-2.80634 3.65654,-4.65434 4.63442,-3.47606 0.37972,0.45753 0.10335,1.06932 -1.21211,2.68314 -0.96115,1.17917 -1.68427,2.70028 -1.68427,3.54298 0,1.01495 0.66282,0.53093 1.80232,-1.31614 1.23996,-2.00993 1.87112,-2.51101 2.85253,-2.26469 0.95279,0.23913 0.81415,1.14481 -0.55381,3.6179 -1.30336,2.35631 -1.38258,2.61726 -0.79454,2.61726 0.56118,0 4.30428,-3.60655 5.20253,-5.01274 1.54201,-2.41398 0.90389,-4.13528 -4.71347,-12.71434 -1.76274,-2.69214 -4.09663,-6.56167 -5.18642,-8.59896 -1.08978,-2.03729 -4.03811,-7.27604 -6.55185,-11.64167 -2.51373,-4.36562 -4.79825,-8.44714 -5.07672,-9.07005 -0.77072,-1.7241 -3.74149,-13.80527 -5.23713,-21.297845 -1.64565,-8.244049 -2.32039,-10.509076 -3.77213,-12.662671 -1.61117,-2.390127 -2.91416,-3.196996 -7.906158,-4.895821 -5.37575,-1.829421 -7.56539,-2.877627 -8.20619,-3.928402 -0.39439,-0.646729 -0.48646,-1.350248 -0.48726,-3.723386 -0.001,-4.00758 -0.0314,-3.975052 3.57857,-3.874447 2.16679,0.06038 2.96584,-0.01361 3.42979,-0.317602 0.79083,-0.518169 1.38915,-2.330858 1.74932,-5.299831 0.3246,-2.6757 0.48118,-3.088665 1.63245,-4.305389 l 0.802635,-0.848261 -0.850675,-1.902478 c -0.58595,-1.310449 -0.93074,-2.61085 -1.10798,-4.178822 -0.32509,-2.875829 -0.60813,-3.955742 -1.6177,-6.17226 -0.78078,-1.71421 -1.2674,-2.083259 -1.2674,-0.96119 0,0.98198 -1.59562,4.536699 -2.78384,6.201842 -1.26592,1.774021 -2.72955,3.070498 -4.13219,3.660263 -0.83237,0.349984 -0.9651,0.324361 -2.37997,-0.459421 -1.78371,-0.988103 -2.66677,-0.844233 -3.49211,0.568939 -0.44553,0.762854 -0.47219,1.014265 -0.2029,1.913082 0.43004,1.435326 1.25504,2.26681 2.80455,2.826565 1.16537,0.420986 1.33256,0.576486 1.40393,1.305722 0.0605,0.618594 -0.0714,0.934555 -0.52189,1.250114 -0.7682,0.538069 -2.31166,0.543065 -3.07279,0.0099 -0.5573,-0.390345 -0.60279,-0.37531 -0.85263,0.281808 -0.14515,0.381784 -0.26391,0.813158 -0.26391,0.958608 0,0.641467 -1.25762,3.183348 -2.5559,5.165951 -0.89683,1.369547 -1.41285,2.441332 -1.41285,2.934512 0,2.406785 -1.81795,5.551744 -4.07533,7.050108 l -1.48092,0.982977 v 3.639454 c 0,4.280214 -0.23789,4.954919 -1.50259,4.261763 -1.14747,-0.628902 -1.39962,-1.428521 -1.40393,-4.452081 -0.004,-2.487778 -0.0461,-2.724107 -0.46146,-2.564703 -0.25166,0.09657 -1.59111,0.419626 -2.97656,0.7179 -5.16574,1.112133 -9.2888,3.752027 -10.93557,7.001767 -1.08989,2.150788 -1.42774,3.819209 -2.43101,12.005114 -1.1736,9.575621 -2.07157,15.859181 -2.79415,19.552001 -0.79908,4.08384 -0.91188,7.85099 -0.39693,13.25639 0.50933,5.34636 1.57776,13.93153 2.14028,17.19792 0.46335,2.69046 0.49049,5.4651 0.0967,9.88619 -0.25615,2.87587 -0.2368,3.4735 0.15643,4.83365 0.77525,2.68146 2.61981,5.24994 4.6906,6.53147 1.41224,0.87398 2.04107,0.36048 0.96336,-0.78669 -0.67969,-0.7235 -1.25057,-3.58327 -1.27086,-6.36625 -0.0119,-1.62489 0.0622,-1.94967 0.49785,-2.18281 0.28147,-0.15064 0.63016,-0.27389 0.77485,-0.27389 0.55984,0 1.09463,0.87398 1.09463,1.78891 0,1.22784 0.5758,4.03192 0.82792,4.03192 0.38654,0 0.81797,-3.07626 0.70503,-5.02717 -0.10093,-1.74348 -0.30571,-2.41077 -1.58601,-5.16813 -0.80856,-1.74139 -1.6199,-3.88053 -1.80297,-4.75366 -0.32246,-1.53789 -0.26035,-8.45769 0.15554,-17.33021 0.0785,-1.67349 0.24538,-5.60255 0.37097,-8.73125 0.17708,-4.41141 0.37878,-6.40136 0.89841,-8.86355 0.36853,-1.74626 1.03644,-4.90141 1.48424,-7.01147 0.44779,-2.11005 1.04887,-4.95091 1.33573,-6.313 0.31774,-1.50874 0.52155,-3.503255 0.52155,-5.103844 V 95.43846 l -1.02906,-0.98159 c -1.19965,-1.144299 -1.66536,-2.50342 -1.34483,-3.924645 0.80525,-3.570358 5.30256,-4.557304 7.47641,-1.640716 1.26409,1.695989 0.72757,4.721178 -1.04028,5.865696 l -0.88069,0.570159 -0.003,4.630208 -0.003,4.630228 1.05112,1.54738 c 0.68671,1.01092 1.37004,2.5703 1.97103,4.49792 1.516,4.86252 1.77673,6.0151 1.92661,8.51655 0.18509,3.08892 -0.41604,5.54625 -2.41159,9.85838 -2.28023,4.92727 -4.6583,11.43311 -6.54776,17.91315 -1.25487,4.30368 -1.25507,4.3013 0.69966,8.56571 1.4563,3.17703 1.85,5.49506 1.46073,8.6005 -0.32654,2.60497 -0.90615,4.43933 -1.60157,5.06868 -0.28503,0.25794 -0.51824,0.67944 -0.51824,0.93664 0,0.25721 0.46583,2.41164 1.03516,4.78764 0.56934,2.376 1.66166,7.35609 2.42739,11.06687 1.30374,6.31811 1.39239,6.99068 1.39484,10.58333 0.002,3.46684 -0.0902,4.24434 -0.96083,8.07009 -1.83447,8.06108 -1.90953,8.68046 -1.8918,15.61012 0.0138,5.39568 0.14669,7.48326 0.88417,13.89063 1.07266,9.31939 1.1452,13.3035 0.31074,17.06561 -0.91065,4.10564 -0.96555,4.82284 -0.41568,5.43044 0.44913,0.49629 0.83899,0.52269 7.71637,0.52269 6.56471,0 7.25946,-0.042 7.41542,-0.44846 z m -5.47789,-64.86535 c -1.08149,-0.58001 -2.11914,-2.37228 -2.11914,-3.66026 0,-1.40188 0.66247,-2.64244 1.83992,-3.44552 l 1.08161,-0.7377 -0.0717,-4.57902 -0.0717,-4.57901 -2.43266,-2.24383 c -2.84631,-2.62536 -2.65845,-2.00111 -2.80787,-9.3308 -0.0939,-4.60815 -0.0715,-4.88334 0.43783,-5.35781 0.6512,-0.60669 1.95956,-0.64855 2.75945,-0.0883 0.42958,0.30089 0.58804,0.67876 0.58804,1.40229 0,0.54473 -0.12695,1.11737 -0.28212,1.27253 -0.32692,0.32692 -0.4814,7.60204 -0.17905,8.43199 0.1079,0.29617 1.02489,1.21551 2.03776,2.04297 2.7138,2.21704 2.75986,2.34684 2.87538,8.1032 l 0.0976,4.86381 1.00502,0.95702 c 2.17811,2.07409 1.89392,5.39636 -0.59124,6.91157 -1.09806,0.6695 -2.95684,0.68594 -4.16713,0.0369 z m 3.10775,-2.48567 c 0.14553,-0.1819 0.34943,-0.60715 0.45312,-0.945 0.39818,-1.29744 -1.47025,-2.17425 -2.55032,-1.19681 -0.59225,0.53599 -0.61419,1.11038 -0.072,1.8845 0.4575,0.65317 1.73156,0.8043 2.16918,0.25731 z m 12.82365,-6.43115 c -0.6867,-0.48099 -0.7446,-1.26545 -0.19116,-2.59002 0.25555,-0.61162 0.3974,-1.82437 0.39835,-3.40575 0.002,-3.51362 0.2602,-4.22597 1.99562,-5.508 l 1.44248,-1.06563 v -2.2065 -2.20651 l -0.92483,-0.62942 c -3.25494,-2.21523 -1.63276,-7.90546 2.25371,-7.90546 1.3695,0 3.17087,1.01621 3.74478,2.11254 0.59554,1.13768 0.63538,3.43912 0.0782,4.51662 -0.22243,0.43013 -0.87727,1.08056 -1.45521,1.44539 l -1.05079,0.66334 v 2.7922 c 0,1.53571 -0.11599,3.00892 -0.25775,3.2738 -0.14176,0.26489 -0.67015,0.72494 -1.17421,1.02233 -1.28441,0.75783 -1.78469,1.89437 -1.94171,4.41122 -0.1037,1.66221 -0.0371,2.33417 0.29508,2.9765 0.44679,0.86401 0.36369,1.46788 -0.30993,2.25221 -0.50032,0.58255 -2.10359,0.6108 -2.90261,0.0511 z m 6.14383,-20.28449 c 0.80357,-1.14726 0.22592,-2.32238 -1.1416,-2.32238 -0.9526,0 -1.35694,0.44546 -1.35694,1.49498 0,1.39716 1.70418,1.96151 2.49854,0.8274 z M 75.884622,125.3844 c -0.58779,-0.47597 -0.60329,-0.56682 -0.2939,-1.72359 0.18554,-0.69368 0.32661,-2.82437 0.32661,-4.93285 v -3.71172 l -1.25093,-1.37773 c -0.68801,-0.75775 -1.93817,-2.11156 -2.77812,-3.00847 l -1.5272,-1.63075 v -3.0737 -3.07371 l -0.93956,-0.82495 c -1.35632,-1.19087 -1.78911,-2.17243 -1.64038,-3.720338 0.24785,-2.579444 2.68635,-4.400726 5.08579,-3.798506 1.10215,0.276623 2.74785,1.944685 3.05913,3.100711 0.45407,1.686265 0.0804,2.847103 -1.37096,4.258903 l -1.2836,1.24863 v 2.36456 2.36455 l 2.44739,2.30013 c 1.34607,1.26507 2.59435,2.55618 2.77397,2.86913 0.22474,0.39159 0.32702,2.01267 0.32803,5.19922 8.1e-4,2.54662 0.0757,5.12002 0.16646,5.71868 0.14277,0.94187 0.0818,1.14676 -0.45305,1.52135 -0.82164,0.5755 -1.88763,0.54752 -2.64968,-0.0696 z m -3.18629,-25.584491 c 0.84187,-0.589673 0.70265,-1.928522 -0.25624,-2.464132 -0.62433,-0.348729 -0.76937,-0.342047 -1.38906,0.06399 -0.89397,0.585751 -0.94717,1.819911 -0.10391,2.410554 0.7387,0.517409 0.99784,0.515859 1.74921,-0.01041 z M 165.24199,256.54462 c 0.70195,-0.70222 0.73496,-2.7282 0.10709,-6.57353 -0.41426,-2.53709 -0.53513,-4.09476 -0.41875,-5.39656 0.20126,-2.25137 1.6147,-9.4797 3.36721,-17.21998 0.72486,-3.20145 1.55633,-6.89239 1.84772,-8.20208 0.76152,-3.42278 0.94654,-10.31081 0.39799,-14.81667 -0.50636,-4.15928 -0.33837,-6.90327 0.88277,-14.41979 2.27117,-13.97982 2.72376,-16.91734 3.3427,-21.69583 0.55816,-4.30915 0.64139,-5.7698 0.50508,-8.86354 -0.10075,-2.2867 -0.0583,-4.05367 0.11104,-4.61749 0.19341,-0.64413 1.60085,-2.24781 4.7753,-5.44109 l 4.50106,-4.52778 v -3.83571 -3.83571 l -0.80956,-0.59854 c -1.24409,-0.91979 -1.83415,-2.08657 -1.83528,-3.62903 -0.001,-1.74651 0.77457,-2.94167 2.44884,-3.77236 1.41832,-0.70369 2.40802,-0.64543 3.83644,0.22585 1.41566,0.8635 1.95915,1.98971 1.85529,3.84452 -0.0972,1.7363 -0.60949,2.68098 -1.85771,3.4258 l -0.7276,0.43416 v 4.66296 4.66296 l -4.79752,4.65107 -4.79752,4.65106 0.82297,5.28925 c 1.39155,8.94352 1.84836,12.13261 2.95576,20.63508 1.32985,10.21037 2.11025,14.89208 3.26902,19.61128 0.80205,3.26645 0.92752,4.26625 1.09283,8.70817 0.1412,3.79404 0.3711,5.99461 0.9425,9.02168 1.89677,10.04823 3.12573,18.38526 3.32956,22.58699 0.24425,5.0351 -0.92583,8.79875 -3.84588,12.3706 -0.74413,0.91024 -1.35297,1.8687 -1.35297,2.1299 0,1.04467 0.40716,1.10992 6.92598,1.10992 h 6.29099 l 0.40449,-0.61734 c 0.4579,-0.69885 0.416,-1.01789 -0.87891,-6.69156 -1.24416,-5.45134 -1.24526,-5.26368 0.10014,-17.0379 0.88893,-7.77942 1.26408,-12.20158 1.37083,-16.15912 0.16477,-6.10781 0.0153,-7.59402 -1.4213,-14.13054 -1.4559,-6.6244 -1.56495,-8.11836 -1.05257,-14.41979 0.24257,-2.98318 0.64028,-8.00201 0.88381,-11.15296 l 0.44278,-5.729 -0.85618,-0.72043 c -1.54438,-1.29951 -1.97449,-2.52816 -2.08133,-5.94553 -0.0908,-2.90575 -0.0565,-3.14393 0.76214,-5.29166 0.76548,-2.00817 0.85339,-2.51808 0.82102,-4.7625 -0.0199,-1.38245 -0.45215,-5.8473 -0.96048,-9.92188 -0.50833,-4.07458 -1.18939,-9.84911 -1.51347,-12.83229 l -0.58923,-5.42396 1.08793,-6.61458 c 1.34378,-8.17012 1.72524,-10.85813 1.59594,-11.24603 -0.0551,-0.16544 -0.86509,0.5113 -1.79986,1.50386 -0.93478,0.99255 -5.00474,5.21165 -9.04436,9.37579 l -7.34475,7.57113 -0.0164,10.10791 -0.0164,10.10791 -1.08684,1.50325 c -0.59775,0.8268 -3.00651,3.44039 -5.35279,5.80798 l -4.26595,4.30472 0.0764,6.27862 0.0764,6.27861 0.89554,0.79375 c 2.3871,2.11578 2.21745,5.45168 -0.36415,7.1601 -0.91595,0.60615 -1.27832,0.69348 -2.42173,0.58361 -4.10551,-0.39449 -5.4943,-5.76964 -2.0352,-7.87702 l 0.86231,-0.52535 v -6.96529 -6.96528 l 4.684,-4.84857 4.68401,-4.84856 -4.35328,-4.49698 -4.35327,-4.49697 v -4.43423 -4.43423 l -0.90657,-0.53489 c -2.94606,-1.73823 -2.69115,-6.00036 0.45622,-7.62793 1.13018,-0.58444 3.14928,-0.31566 4.31648,0.57461 2.36606,1.80469 2.32349,5.32388 -0.0832,6.87448 -1.01274,0.6525 -1.13714,1.20693 -1.13714,5.06811 v 3.01758 l 3.60188,3.82851 c 1.98104,2.10568 3.64791,3.82851 3.70417,3.82851 0.0563,0 0.10229,-6.45642 0.10229,-14.3476 v -14.34762 l -5.56161,-5.43001 -5.56161,-5.43002 -0.14744,-3.57189 c -0.0811,-1.964541 -0.17576,-4.189559 -0.21037,-4.944494 -0.0558,-1.21769 -0.18319,-1.489319 -1.12845,-2.406667 -2.98485,-2.896701 -1.29866,-7.774195 2.6876,-7.774195 2.46716,0 4.10104,1.729833 4.10104,4.34188 0,1.835581 -0.51218,2.890825 -1.78593,3.679571 l -0.8599,0.532471 v 4.135522 4.135542 l 4.23333,4.26157 4.23334,4.26155 -0.0102,-13.776504 -0.0102,-13.776464 -0.8497,-0.529166 c -1.20212,-0.748641 -2.13973,-2.729641 -1.91672,-4.049671 0.70633,-4.180688 5.61868,-5.179466 8.0296,-1.632575 0.51439,0.756762 0.60526,1.16784 0.51278,2.319781 -0.12475,1.553989 -0.71011,2.539503 -1.99718,3.362465 l -0.82759,0.529166 0.004,19.050018 0.004,19.05004 5.42936,-5.55626 c 2.98615,-3.05594 7.14868,-7.375 9.25007,-9.5979 l 3.82071,-4.04167 -0.13458,-3.19739 -0.13457,-3.197369 -1.07653,-0.963068 c -2.12398,-1.900126 -1.83593,-4.913906 0.64683,-6.767552 1.02287,-0.763685 3.52818,-0.764155 4.57506,-8.59e-4 0.92568,0.674936 1.93957,2.605595 1.93182,3.678594 -0.009,1.252523 -0.91728,2.959268 -1.92692,3.621105 -0.8366,0.548408 -0.92637,0.734631 -1.05895,2.196741 -0.20073,2.213658 0.97569,11.519018 2.47694,19.592288 0.46293,2.48952 0.58043,4.728 0.8125,15.47814 0.30178,13.97906 0.23047,17.65431 -0.37025,19.08483 -0.22193,0.52849 -1.00233,1.95724 -1.73421,3.175 -1.79693,2.98989 -2.69224,5.72616 -2.68761,8.2139 0.004,1.96668 0.18648,3.13164 0.49027,3.1243 0.60742,-0.0147 0.91147,-0.68771 1.14816,-2.54147 0.36587,-2.86542 0.55464,-3.27531 1.50839,-3.27531 0.42929,0 0.97025,0.18972 1.20213,0.4216 0.48106,0.48106 0.41246,1.41644 -0.42512,5.7961 -0.76765,4.01405 -1.03382,5.75994 -0.89874,5.89502 0.26725,0.26725 2.53299,-1.3254 3.64486,-2.56207 1.43804,-1.59944 2.9616,-4.43403 3.50539,-6.52178 0.28724,-1.10282 0.40576,-2.89687 0.40912,-6.19332 0.003,-3.47076 0.17073,-5.84146 0.66314,-9.40326 2.36754,-17.12558 2.56982,-21.70907 1.51796,-34.39586 -0.32576,-3.92906 -0.66015,-8.15578 -0.74309,-9.39272 -0.58652,-8.746686 -1.23979,-15.15175 -1.72671,-16.929699 -1.05974,-3.869566 -3.22696,-6.488282 -6.67532,-8.066003 -1.49011,-0.681765 -12.42363,-4.373074 -12.95288,-4.373074 -0.0653,0 -0.0602,4.256514 0.0113,9.45892 l 0.13003,9.458919 -2.06077,1.919316 -2.06077,1.919316 -0.25006,2.843125 c -0.13754,1.56372 -0.19074,4.70619 -0.11822,6.98326 0.0901,2.82898 0.0395,4.23248 -0.15981,4.43178 -0.4405,0.4405 -2.0645,0.3496 -2.61239,-0.14623 -0.51687,-0.46777 -0.65808,-1.80445 -0.21927,-2.07566 0.16467,-0.10176 0.26459,-2.59577 0.26459,-6.60408 v -6.440561 l 2.01831,-1.884878 2.0183,-1.884878 -0.0458,-9.580029 c -0.0431,-9.024086 -0.075,-9.611187 -0.55018,-10.116949 -0.27742,-0.295307 -0.77812,-1.13075 -1.11265,-1.856542 -0.56115,-1.217464 -0.60823,-1.67806 -0.60823,-5.949829 0,-5.232246 -0.05,-5.058388 2.5784,-8.957625 2.40106,-3.561928 3.14126,-5.825495 3.13528,-9.587804 -0.006,-3.714088 -1.4016,-6.749289 -4.30316,-9.358044 -2.74776,-2.470473 -5.9194,-3.597327 -10.14177,-3.603282 -6.81669,-0.0096 -11.41662,2.854735 -13.63112,8.488006 -0.39386,1.001898 -0.64128,2.434712 -0.79426,4.599597 -0.21323,3.017385 -0.27148,3.241655 -1.44232,5.552553 -0.67106,1.32449 -1.10377,2.446942 -0.96159,2.494337 0.14219,0.0474 0.72418,0.423496 1.29332,0.835778 l 1.0348,0.749605 0.16151,3.004377 c 0.18139,3.37423 0.46106,4.59632 1.2943,5.655609 l 0.57272,0.728094 3.45862,-0.17939 c 2.70343,-0.140221 3.56485,-0.101707 3.94517,0.17639 0.58225,0.425754 0.80385,2.40414 0.55363,4.942806 -0.18824,1.909817 -0.87745,2.829032 -2.53328,3.378713 -0.48895,0.162314 -2.07963,0.731673 -3.53483,1.265241 -1.45521,0.533568 -4.31271,1.444449 -6.35,2.02418 -2.10244,0.598269 -4.32093,1.418527 -5.13048,1.896936 -2.28638,1.351137 -4.40415,4.414037 -5.43071,7.85434 -0.69564,2.331329 -2.13458,8.893031 -3.45227,15.742729 -2.68792,13.97246 -1.97476,11.68022 -6.50307,20.90212 -3.18019,6.47643 -6.6794,13.82187 -7.81813,16.4116 -0.0658,0.14961 0.71643,1.4439 1.73826,2.8762 1.02182,1.4323 1.85786,2.70888 1.85786,2.83684 0,0.60965 0.44778,0.10676 0.91277,-1.02511 0.28374,-0.69068 3.54247,-5.76752 7.24162,-11.28188 3.69914,-5.51436 7.06384,-10.75311 7.47709,-11.64167 0.85607,-1.84065 2.6825,-7.50843 4.21563,-13.08191 l 1.04348,-3.79343 -0.39054,-3.87952 c -0.44761,-4.446427 -0.49807,-6.825263 -0.14934,-7.040789 0.39789,-0.245908 1.55573,0.317089 1.8736,0.911032 0.16283,0.304266 0.41872,1.649418 0.56864,2.989228 0.14992,1.339809 0.73142,5.591199 1.29223,9.447519 1.52679,10.4987 1.94575,17.43061 1.32727,21.96044 -2.19466,16.07402 -2.71031,22.14589 -2.79748,32.94062 -0.0789,9.77655 0.0948,14.17209 0.81555,20.6375 0.66427,5.95832 1.03373,16.48412 0.93799,26.72292 -0.049,5.23875 0.0542,13.335 0.22937,17.99166 0.47033,12.50548 0.10655,15.49111 -2.19835,18.04236 -1.15448,1.27787 -5.81716,4.5661 -9.03808,6.37385 -2.59073,1.45407 -5.82969,2.82176 -7.36419,3.10964 -2.80993,0.52714 -0.0122,0.66118 12.38199,0.59321 12.07642,-0.0662 13.39452,-0.11558 13.79528,-0.51649 z m 2.10171,-80.23691 c 0.34619,-0.52834 0.36389,-0.75359 0.0988,-1.25677 -0.17765,-0.33718 -0.454,-0.70053 -0.61411,-0.80744 -0.8423,-0.56242 -2.2755,0.19764 -2.2755,1.20675 0,1.42887 2.01149,2.04689 2.79083,0.85746 z m 32.68639,-34.59829 c -0.0532,-11.68475 -0.42921,-20.19588 -1.02053,-23.09862 -0.56267,-2.76207 -0.46532,-2.99951 -1.50963,3.68207 -0.63866,4.08622 -0.64673,4.30614 -0.27177,7.40833 0.21254,1.75841 0.80749,6.70945 1.32211,11.00231 1.07111,8.93502 1.17258,9.63279 1.37191,9.43347 0.0801,-0.0801 0.12864,-3.87248 0.10791,-8.42756 z M 61.728422,129.62391 c 2.73993,-5.90673 3.18626,-7.70054 2.76947,-11.13058 -0.23372,-1.92343 -2.78019,-10.069 -3.14778,-10.069 -0.18959,0 -0.17801,-0.0508 -1.931,8.46667 -1.14649,5.57053 -1.17692,5.85049 -1.46703,13.49376 -0.16294,4.29287 -0.28866,8.1624 -0.27936,8.59896 0.0115,0.54053 0.3852,-0.23101 1.17139,-2.41847 0.63497,-1.76672 1.93291,-4.89033 2.88431,-6.94134 z m 12.45411,7.84573 c 0.52733,-0.75286 0.52052,-1.23463 -0.026,-1.83852 -0.49727,-0.54948 -1.68057,-0.64082 -2.15503,-0.16636 -0.44954,0.44954 -0.39377,1.68511 0.0983,2.17715 0.59674,0.59674 1.60239,0.51356 2.08276,-0.17227 z m 112.776718,-3.42683 c 0.79451,-0.7464 0.7856,-1.68026 -0.0211,-2.20881 -1.24547,-0.81607 -2.75948,0.28155 -2.25803,1.63702 0.20521,0.55469 0.91278,1.12257 1.41921,1.13903 0.13615,0.004 0.5231,-0.25083 0.8599,-0.56724 z m -19.31458,-7.40833 c 0.3368,-0.31641 0.61237,-0.75522 0.61237,-0.97514 0,-0.56933 -1.06112,-1.62458 -1.63362,-1.62458 -0.64233,0 -1.54138,0.92596 -1.54138,1.5875 0,0.64478 0.89332,1.5875 1.5043,1.5875 0.24528,0 0.72153,-0.25888 1.05833,-0.57528 z M 199.2586,93.963485 c 0.64686,-0.585399 0.63085,-1.846079 -0.0279,-2.198642 -1.66896,-0.893201 -3.21155,0.545163 -2.10008,1.958179 0.61326,0.779628 1.43022,0.871944 2.128,0.240463 z m -137.054288,-1.5875 c 1.04743,-0.947913 0.18388,-2.594332 -1.27256,-2.426221 -0.94424,0.108992 -1.52007,1.117257 -1.09727,1.921306 0.54759,1.041359 1.54277,1.253392 2.36983,0.504915 z m 34.39583,-0.264583 c 0.971315,-0.879026 0.26771,-2.472535 -1.09174,-2.472535 -0.9214,0 -1.33482,0.450703 -1.33482,1.455209 0,0.451114 0.14287,0.963083 0.3175,1.137708 0.45398,0.453986 1.54308,0.391821 2.10906,-0.120382 z m 69.960168,-0.221649 c 0.90066,-1.374575 -0.17114,-2.759142 -1.71834,-2.219784 -1.11982,0.390371 -1.3554,1.364466 -0.53992,2.232505 0.78623,0.836908 1.70496,0.831733 2.25826,-0.01272 z M 82.841812,85.496819 c 1.33914,-1.211912 -0.28147,-3.07277 -1.91479,-2.198642 -0.58664,0.313959 -0.7113,1.801999 -0.19427,2.319024 0.45398,0.453985 1.54308,0.391821 2.10906,-0.120382 z m 94.995228,-4.126181 c 0.72777,-0.572088 0.82256,-1.437538 0.22311,-2.036986 -0.88051,-0.880518 -2.02611,-0.695917 -2.61393,0.421209 -0.24397,0.46366 -0.19946,0.692781 0.24418,1.256771 0.584,0.742444 1.4703,0.890669 2.14664,0.359006 z M 57.213682,78.805458 c 2.08631,-1.004871 4.04218,-1.58901 8.47164,-2.530135 4.43652,-0.942624 6.69796,-2.839275 6.95508,-5.833176 0.20312,-2.365065 0.26207,-2.526369 1.44379,-3.950365 2.39509,-2.886129 3.22038,-5.449579 3.28077,-10.190414 0.0445,-3.49189 0.19105,-4.0439 1.42897,-5.381434 1.42015,-1.534431 3.54122,-2.05278 5.69831,-1.392559 1.4608,0.447107 1.73808,0.359434 2.98351,-0.943353 1.37277,-1.435978 2.66944,-3.848586 3.11036,-5.787175 0.22686,-0.997415 0.41247,-1.945392 0.41247,-2.106618 0,-0.473725 -2.69684,-1.57141 -4.89312,-1.991628 -6.03554,-1.154789 -11.98393,0.358082 -16.0472,4.081335 -3.09782,2.838587 -4.45443,5.713585 -5.13298,10.878061 -0.68441,5.209104 -2.09232,7.941432 -6.46627,12.549031 -3.34974,3.528677 -3.94935,4.730162 -4.16746,8.35059 -0.1207,2.003641 0.26813,5.291666 0.62579,5.291666 0.071,0 1.10439,-0.469722 2.29634,-1.043826 z"
       id="path1"
       sodipodi:nodetypes="sssssssssssscsssscssssssssssssssscccssssssssssssssssscssscsssscsssssssssssssscssssssscscsssssscsssssssssssssssscscscsssssssssssssssssssssssssssssssssssssssssscsscsssssssccccsssscccccssscssscccscsssscccsssccsscccssssscscsccccccsscccssscccssssssssssssssssssssssssscsssssssssssssssssssssssscsssscsssssssssssssssssscsscssssssssssscssssssscssssscsssscccssssssssssscssssssccssscccssssssssscsssssssssssscscccssssscssssssssssssssscsscccssssscccsssssssssssscsssssssscscccscsssscccccssssssssscssssssscsssssscsssscccsscccsssscccccccccssssscssscccscsssscccccccscssscccsscccssscsssssscsssssssscssssssscccsscssscccccsscsssssssscsscssssssssssssssssscssssssccscsssscccsssccsssssssssssssssssssssssscssssssssssssssssssssssssssssssssssssssssssssssssssss" /><path
       d="m 46.073828,282.72151 v 13.97222 h -1.963884 v -7.97828 q 0.01023,-0.6444 0.02046,-1.38086 0.01023,-0.74669 0.02046,-1.38086 0.01023,-0.63417 0.01023,-1.04331 0.01023,-0.41937 0.01023,-1.26834 -0.204571,0.70577 -0.562571,1.76954 -0.357999,1.05354 -0.746685,2.08663 -0.378457,1.03308 -0.889885,2.40371 l -2.638969,6.79177 h -1.933199 l -2.638969,-6.79177 q -0.593257,-1.55474 -1.237657,-3.23223 -0.634171,-1.67748 -1.022856,-3.02765 0,0.1432 -0.02046,0.2148 0,0.0921 0.02046,0.31708 0.02046,0.2148 0.03069,0.34777 0.02046,0.13298 0.03068,0.29663 0.153429,1.29903 0.153429,4.04029 v 7.83508 h -1.99457 v -13.97222 h 3.27314 l 2.761713,7.01679 q 0.613713,1.53429 1.002399,2.58783 0.398914,1.05354 0.654628,2.10708 0.5012,-1.74908 1.677484,-4.73582 l 2.659427,-6.97588 z m 9.952393,0 6.05531,13.97222 h -2.250284 l -1.462684,-3.53909 h -6.791767 l -1.442227,3.53909 h -2.158227 l 5.953024,-13.97222 z m 1.646799,8.73519 -1.605884,-3.89708 q -0.480743,-1.11492 -0.716,-1.74909 -0.235257,-0.6444 -0.419371,-1.37062 -0.153428,0.56257 -0.368228,1.12514 -0.204572,0.55234 -0.808057,2.03548 l -1.544513,3.85617 z m 16.02816,-8.21354 -0.163657,1.91275 q -0.787599,-0.46029 -1.442228,-0.63418 -0.654628,-0.18411 -1.472913,-0.18411 -1.155827,0 -2.127541,0.37846 -0.961485,0.36823 -1.677485,1.074 -0.715999,0.70577 -1.104684,1.67748 -0.388686,0.96149 -0.388686,2.12754 0,1.53429 0.695542,2.78217 0.705771,1.23766 1.933199,1.94343 1.237656,0.69554 2.761712,0.69554 1.421771,0 2.986741,-0.62394 l 0.153428,1.92297 q -0.818285,0.26594 -1.49337,0.37846 -0.664857,0.10228 -1.585427,0.10228 -2.199142,0 -3.927769,-0.84897 -1.718399,-0.84897 -2.690112,-2.46508 -0.971714,-1.62635 -0.971714,-3.84594 0,-2.02526 0.920571,-3.62092 0.930799,-1.59565 2.608284,-2.48554 1.687713,-0.88988 3.805026,-0.88988 1.830913,0 3.181083,0.60348 z m 13.205074,-0.52165 v 13.97222 h -1.99457 v -6.41331 h -6.76108 v 6.41331 h -1.99457 v -13.97222 h 1.99457 v 5.86096 h 6.76108 v -5.86096 z m 5.71777,0 v 13.97222 h -1.99457 v -13.97222 z m 14.913246,0 v 13.97222 h -2.5776 l -4.41874,-7.57937 q -1.145594,-2.02526 -1.585423,-2.864 -0.429599,-0.84897 -0.767142,-1.9332 0.173886,2.30143 0.173886,5.27794 v 7.09863 h -1.99457 v -13.97222 h 2.720798 l 4.756281,8.23399 q 1.44223,2.506 1.9332,3.99937 -0.13297,-1.40131 -0.15343,-1.88206 -0.0205,-0.81828 -0.0409,-1.61611 -0.0102,-0.79783 -0.0205,-1.0024 0,-0.20457 0,-1.01263 v -6.72016 z m 11.37416,0 v 1.7184 h -5.77914 v 4.10165 h 5.35977 v 1.7184 h -5.35977 v 4.73582 h 5.9428 v 1.69795 h -7.93737 v -13.97222 z m 11.07754,0 v 12.27427 h 5.90188 v 1.69795 h -7.89645 v -13.97222 z m 15.83382,0 v 1.7184 h -5.77914 v 4.10165 h 5.35976 v 1.7184 h -5.35976 v 4.73582 h 5.94279 v 1.69795 h -7.93736 v -13.97222 z m 9.61485,0 6.05531,13.97222 h -2.25029 l -1.46268,-3.53909 h -6.79177 l -1.44223,3.53909 h -2.15822 l 5.95302,-13.97222 z m 1.6468,8.73519 -1.60589,-3.89708 q -0.48074,-1.11492 -0.716,-1.74909 -0.23526,-0.6444 -0.41937,-1.37062 -0.15343,0.56257 -0.36823,1.12514 -0.20457,0.55234 -0.80805,2.03548 l -1.54452,3.85617 z m 6.31101,-8.73519 h 3.35497 q 1.25811,0 1.88206,0.0818 0.63417,0.0716 1.27857,0.29662 0.70577,0.23526 1.2172,0.716 0.51142,0.47052 0.79782,1.1456 0.2864,0.67509 0.2864,1.44223 0,1.35017 -0.7876,2.19914 -0.7876,0.83874 -2.15822,1.074 0.66485,0.31709 0.99217,0.68531 0.32731,0.358 0.74668,1.23766 l 2.34234,5.09383 h -2.28097 l -1.80022,-4.19372 q -0.40915,-0.94102 -0.716,-1.33994 -0.30686,-0.40914 -0.75692,-0.54211 -0.43982,-0.1432 -1.25811,-0.1432 h -1.1456 v 6.21897 h -1.99457 z m 1.99457,1.7184 v 4.31645 h 1.23766 q 3.53908,0 3.53908,-2.17868 0,-1.30926 -0.9308,-1.7184 -0.92057,-0.41937 -2.40371,-0.41937 z m 21.38793,-1.7184 v 13.97222 h -2.5776 l -4.41874,-7.57937 q -1.1456,-2.02526 -1.58543,-2.864 -0.4296,-0.84897 -0.76714,-1.9332 0.17389,2.30143 0.17389,5.27794 v 7.09863 h -1.99457 v -13.97222 h 2.7208 l 4.75628,8.23399 q 1.44223,2.506 1.9332,3.99937 -0.13297,-1.40131 -0.15343,-1.88206 -0.0205,-0.81828 -0.0409,-1.61611 -0.0102,-0.79783 -0.0204,-1.0024 0,-0.20457 0,-1.01263 v -6.72016 z m 5.71777,0 v 13.97222 h -1.99457 v -13.97222 z m 14.91324,0 v 13.97222 h -2.5776 l -4.41874,-7.57937 q -1.1456,-2.02526 -1.58542,-2.864 -0.4296,-0.84897 -0.76715,-1.9332 0.17389,2.30143 0.17389,5.27794 v 7.09863 h -1.99457 v -13.97222 h 2.7208 l 4.75628,8.23399 q 1.44223,2.506 1.9332,3.99937 -0.13297,-1.40131 -0.15343,-1.88206 -0.0205,-0.81828 -0.0409,-1.61611 -0.0102,-0.79783 -0.0205,-1.0024 0,-0.20457 0,-1.01263 v -6.72016 z m 14.24839,0.58303 -0.13297,1.93319 q -0.83874,-0.47051 -1.67748,-0.68531 -0.83874,-0.2148 -1.88206,-0.2148 -1.65702,0 -2.93559,0.67509 -1.27858,0.66485 -1.98435,1.88205 -0.69554,1.2172 -0.69554,2.74126 0,1.59565 0.70577,2.85377 0.716,1.24788 2.01503,1.93319 1.29903,0.67509 2.97651,0.67509 0.87966,0 1.89229,-0.2864 v -4.05051 h -2.99697 v -1.68771 h 4.98131 v 7.07816 q -1.05354,0.34777 -2.0048,0.5012 -0.94103,0.1432 -1.99457,0.1432 -1.74909,0 -3.17086,-0.49097 -1.42177,-0.49097 -2.45485,-1.44223 -1.03309,-0.95125 -1.56497,-2.27074 -0.52166,-1.31948 -0.52166,-2.97651 0,-2.17868 1.0024,-3.75388 1.01263,-1.58543 2.74126,-2.40372 1.73885,-0.81828 3.88685,-0.81828 2.08663,0 3.81525,0.66486 z"
       id="text1-8"
       style="font-size:20.9481px;line-height:1.55;font-family:Frutiger;-inkscape-font-specification:'Frutiger, Normal';fill:#901a1e;stroke-width:1.60641"
       transform="scale(1.023801,0.97675231)"
       aria-label="MACHINE LEARNING" /><path
       d="m 45.857682,304.66603 c 0,1.85059 -0.66962,3.23853 -2.43498,3.23853 -1.86276,0 -2.471505,-1.29054 -2.471505,-3.2507 v -2.62978 c 0,-1.26619 0.02435,-1.47316 0.730494,-1.53404 l 0.292197,-0.0244 c 0.07305,-0.0487 0.0487,-0.25567 -0.02435,-0.2922 -0.59657,0.0243 -0.998342,0.0365 -1.497513,0.0365 -0.486996,0 -0.900943,-0.0122 -1.509688,-0.0365 -0.07305,0.0365 -0.0974,0.2435 -0.02435,0.2922 l 0.304372,0.0244 c 0.706144,0.0609 0.730494,0.26785 0.730494,1.53404 v 2.87328 c 0,1.44881 0.304373,2.33758 0.949642,2.87327 0.59657,0.51135 1.436638,0.66962 2.276707,0.66962 0.900942,0 1.801885,-0.31655 2.325405,-0.88877 0.681795,-0.73049 0.852244,-1.85058 0.852244,-2.9098 v -1.37576 c 0,-0.6818 0,-2.08191 0.170448,-2.48368 0.07305,-0.15827 0.304373,-0.26785 0.608745,-0.2922 l 0.292198,-0.0244 c 0.06087,-0.0731 0.07305,-0.23132 -0.02435,-0.2922 -0.438296,0.0243 -0.767019,0.0365 -1.278365,0.0365 -0.474821,0 -0.925292,-0.0122 -1.387938,-0.0365 -0.07305,0.0487 -0.0974,0.20698 -0.02435,0.2922 l 0.304372,0.0244 c 0.304373,0.0243 0.523521,0.10958 0.608745,0.25567 0.206974,0.36525 0.231324,1.76536 0.231324,2.52021 z m 9.825147,-1.40011 c 0,-0.56005 -0.02435,-2.06973 0.182624,-2.50803 0.0487,-0.0974 0.292197,-0.1948 0.681794,-0.25567 l 0.170449,-0.0244 c 0.07305,-0.0731 0.07305,-0.2435 -0.02435,-0.30438 -0.413947,0.0243 -0.730494,0.0365 -1.254015,0.0365 -0.462646,0 -0.876593,-0.0122 -1.436638,-0.0365 -0.0974,0.0365 -0.109574,0.23133 -0.02435,0.30438 l 0.206973,0.0244 c 0.486996,0.0609 0.681795,0.13392 0.754844,0.24349 0.231323,0.36525 0.243498,1.94799 0.243498,2.52021 v 2.60543 c 0,0.25567 0,0.45047 -0.0487,0.51134 h -0.02435 c -0.572221,-0.58439 -1.168791,-1.26619 -2.008859,-2.20365 l -1.180965,-1.32707 c -0.401772,-0.45047 -1.83841,-2.05756 -2.081908,-2.67848 -0.158274,0.0243 -0.365247,0.0365 -0.560045,0.0365 -0.219149,0 -0.864418,0 -1.375764,-0.0365 -0.0974,0.0487 -0.0974,0.23133 -0.02435,0.30438 l 0.206973,0.0244 c 0.292198,0.0365 0.584396,0.12175 0.754844,0.29219 0.255673,0.28003 0.267848,0.5357 0.267848,0.8766 v 3.51854 c 0,0.5844 0.01217,2.06974 -0.158274,2.50803 -0.06087,0.13393 -0.255673,0.20698 -0.535695,0.2435 l -0.328723,0.0365 c -0.07305,0.073 -0.06087,0.24349 0.02435,0.30437 0.426122,-0.0243 0.754844,-0.0365 1.26619,-0.0365 0.450471,0 0.876593,0.0122 1.424463,0.0365 0.08522,-0.0609 0.0974,-0.20698 0.02435,-0.30437 l -0.377422,-0.0365 c -0.304372,-0.0244 -0.547871,-0.0974 -0.62092,-0.23132 -0.206973,-0.36525 -0.219148,-1.94799 -0.219148,-2.52021 v -2.65413 c 0,-0.36524 0.01217,-0.64526 0.06087,-0.79136 h 0.02435 c 0.255673,0.26784 1.083566,1.26619 1.412289,1.64361 l 2.824576,3.21417 c 1.059217,1.20532 1.412289,1.63144 1.558388,1.83841 0.133924,0 0.206973,-0.0609 0.231323,-0.13392 -0.03653,-0.31655 -0.03653,-1.76536 -0.03653,-2.13061 z m 2.982862,3.12895 c 0,1.29054 -0.02435,1.46099 -0.742669,1.54621 l -0.304373,0.0365 c -0.07305,0.073 -0.0487,0.26784 0.02435,0.30437 0.608745,-0.0243 1.022692,-0.0365 1.534038,-0.0365 0.486996,0 0.900942,0.0122 1.509687,0.0365 0.07305,-0.0365 0.0974,-0.25568 0.02435,-0.30437 l -0.304372,-0.0365 c -0.71832,-0.0852 -0.742669,-0.25567 -0.742669,-1.54621 v -4.33427 c 0,-1.29054 0.02435,-1.49751 0.742669,-1.55838 l 0.304372,-0.0244 c 0.07305,-0.0487 0.0487,-0.26785 -0.02435,-0.30438 -0.608745,0.0243 -1.022691,0.0365 -1.509687,0.0365 -0.511346,0 -0.925293,-0.0122 -1.534038,-0.0365 -0.07305,0.0365 -0.0974,0.25568 -0.02435,0.30438 l 0.304373,0.0244 c 0.718319,0.0609 0.742669,0.26784 0.742669,1.55838 z m 5.916994,0.38959 c 0.206973,0.51135 0.426121,1.10792 0.560045,1.61927 0.06087,0.0244 0.121749,0.0365 0.182623,0.0365 0.0487,0 0.0974,-0.0122 0.133924,-0.0365 0.206974,-0.64527 0.779194,-2.05756 1.26619,-3.17765 l 0.657445,-1.49752 c 0.54787,-1.24183 1.022691,-2.228 1.363588,-2.80022 0.158274,-0.25567 0.340898,-0.40177 0.633095,-0.42612 l 0.365247,-0.0244 c 0.06087,-0.0609 0.06087,-0.25568 -0.02435,-0.30438 -0.401771,0.0243 -0.779193,0.0365 -1.180965,0.0365 -0.462646,0 -0.925292,-0.0122 -1.26619,-0.0365 -0.08522,0.0487 -0.109574,0.23133 -0.02435,0.30438 l 0.219148,0.0244 c 0.426121,0.0487 0.54787,0.1461 0.54787,0.23132 0,0.0852 -0.01217,0.21915 -0.109574,0.47482 -0.206973,0.52352 -0.779193,1.89929 -1.132265,2.72718 -0.280023,0.64527 -0.791369,1.89928 -1.168791,2.70283 -0.608745,-1.38794 -1.16879,-2.78806 -1.728836,-4.20034 -0.377422,-0.9253 -0.584395,-1.58274 -0.608745,-1.70449 0.01217,-0.0974 0.109574,-0.17045 0.572221,-0.23132 l 0.182623,-0.0244 c 0.08522,-0.0731 0.06087,-0.25568 -0.02435,-0.30438 -0.511345,0.0243 -0.937467,0.0365 -1.473163,0.0365 -0.52352,0 -0.913117,-0.0122 -1.266189,-0.0365 -0.0974,0.0609 -0.109574,0.23133 -0.02435,0.30438 l 0.219148,0.0244 c 0.523521,0.0609 0.706144,0.31654 0.986167,0.99834 z m 6.428354,-0.36524 c 0,1.27836 -0.06087,1.46099 -0.754844,1.52186 l -0.401771,0.0365 c -0.07305,0.073 -0.0487,0.26784 0.02435,0.30437 0.71832,-0.0243 1.132266,-0.0365 1.655787,-0.0365 h 1.095741 c 1.083566,0 2.167132,0.0122 3.262873,0.0365 0.158274,-0.32872 0.462646,-1.26619 0.547871,-1.69231 -0.0487,-0.10958 -0.219149,-0.1461 -0.304373,-0.0852 -0.316547,0.6331 -0.64527,1.05922 -0.864418,1.18097 -0.267848,0.13392 -0.62092,0.18262 -1.558387,0.18262 -1.071391,0 -1.327064,-0.13392 -1.473163,-0.28002 -0.194798,-0.20698 -0.231323,-0.62092 -0.231323,-1.26619 v -1.71666 c 0,-0.31655 0.03652,-0.32872 0.401772,-0.32872 h 0.706144 c 0.474821,0 0.767019,0.0122 0.937467,0.0609 0.243498,0.0609 0.328722,0.2435 0.377422,0.46265 l 0.109574,0.47482 c 0.06088,0.073 0.267848,0.073 0.316548,-0.0122 0,-0.26785 -0.0487,-0.73049 -0.0487,-1.16879 0,-0.46264 0.0487,-0.93747 0.0487,-1.22966 -0.0487,-0.0852 -0.255673,-0.0852 -0.316548,-0.0122 l -0.0974,0.49917 c -0.06087,0.30438 -0.146099,0.37742 -0.292198,0.42612 -0.146098,0.0487 -0.52352,0.073 -1.034866,0.073 h -0.706144 c -0.365247,0 -0.401772,0 -0.401772,-0.34089 v -2.43498 c 0,-0.46265 0,-0.487 0.365247,-0.487 h 0.876593 c 0.535695,0 0.925292,0.0122 1.180965,0.073 0.633095,0.15827 0.742669,0.5844 0.925293,1.15662 0.06087,0.073 0.255672,0.0487 0.304372,-0.0244 -0.0487,-0.5357 -0.121749,-1.41229 -0.194798,-1.61927 -0.146099,0.0365 -0.864418,0.0365 -1.643612,0.0365 H 71.53456 c -0.499171,0 -0.913118,-0.0122 -1.436638,-0.0365 -0.07305,0.0365 -0.0974,0.25568 -0.02435,0.30438 l 0.194798,0.0244 c 0.718319,0.0852 0.742669,0.26784 0.742669,1.53403 z m 7.110138,0 c 0,1.27836 -0.02435,1.43664 -0.730494,1.52186 l -0.304372,0.0365 c -0.07305,0.0852 -0.0487,0.26784 0.02435,0.30437 0.572221,-0.0243 1.010517,-0.0365 1.521863,-0.0365 0.486996,0 0.900943,0.0122 1.448813,0.0365 0.07305,-0.0365 0.0974,-0.2435 0.02435,-0.30437 l -0.255673,-0.0365 c -0.706144,-0.0974 -0.730494,-0.2435 -0.730494,-1.52186 v -1.53404 c 0,-0.25567 0.02435,-0.26785 0.57222,-0.26785 0.486996,0 0.681795,0.12175 0.864418,0.3896 0.377422,0.54787 0.876593,1.38794 1.19314,1.83841 0.864418,1.22966 1.485338,1.53404 2.520205,1.53404 0.231323,0 0.426121,-0.0244 0.535695,-0.0609 0.06087,-0.0487 0.0487,-0.1461 -0.01218,-0.17045 -0.328722,-0.0244 -0.633094,-0.15827 -0.840068,-0.34089 -0.827893,-0.69397 -1.473163,-1.66796 -2.447155,-3.23853 -0.06087,-0.0974 -0.121749,-0.21915 -0.06087,-0.29219 0.608745,-0.2435 1.521862,-0.8766 1.521862,-2.03321 0,-0.85225 -0.426121,-1.40012 -1.010516,-1.70449 -0.560046,-0.30437 -1.278365,-0.36525 -2.033209,-0.36525 -1.19314,0 -2.033208,0.0365 -2.715002,0.0974 -0.0974,0.0487 -0.0974,0.2435 -0.01217,0.30438 l 0.389597,0.0487 c 0.49917,0.0609 0.535695,0.26784 0.535695,1.42446 z m 0.998342,-5.47871 c 0,-0.34089 0.03652,-0.38959 0.791368,-0.38959 1.351414,0 1.947984,0.91311 1.947984,1.87493 0,0.82789 -0.280022,1.25402 -0.608745,1.50969 -0.353072,0.26785 -0.815718,0.31655 -1.254014,0.31655 -0.62092,0 -0.803544,-0.0244 -0.840068,-0.0609 -0.03652,-0.0487 -0.03652,-0.18262 -0.03652,-0.40177 z m 10.616516,5.24738 c 0,-1.15661 -0.754844,-1.86275 -1.521863,-2.33758 l -0.973992,-0.60874 c -0.450471,-0.28002 -1.034866,-0.79137 -1.034866,-1.49751 0,-0.56005 0.255673,-1.35142 1.448813,-1.35142 1.16879,0 1.497513,0.79137 1.655786,1.37577 0.06088,0.073 0.255673,0.0365 0.304373,-0.0365 0,-0.51134 -0.109574,-1.19314 -0.219148,-1.48534 -0.0974,0 -0.267848,-0.0243 -0.426122,-0.073 -0.316547,-0.0852 -0.754844,-0.15827 -1.132265,-0.15827 -1.582737,0 -2.48368,0.93747 -2.48368,2.09408 0,0.99835 0.706144,1.69231 1.314889,2.09409 l 1.156616,0.75484 c 0.888767,0.57222 0.998341,1.16879 0.998341,1.70449 0,0.73049 -0.49917,1.40011 -1.521862,1.40011 -1.412288,0 -1.911459,-1.19314 -2.094083,-1.81406 -0.0487,-0.073 -0.231323,-0.0487 -0.292197,0.0365 0.02435,0.57222 0.182623,1.43664 0.328722,1.70449 0.231323,0.13392 0.876593,0.45047 1.899284,0.45047 1.582737,0 2.593254,-0.91312 2.593254,-2.25236 z m 2.191485,0.20698 c 0,1.29054 -0.02435,1.46099 -0.742669,1.54621 l -0.304372,0.0365 c -0.07305,0.073 -0.0487,0.26784 0.02435,0.30437 0.608745,-0.0243 1.022691,-0.0365 1.534037,-0.0365 0.486996,0 0.900943,0.0122 1.509688,0.0365 0.07305,-0.0365 0.0974,-0.25568 0.02435,-0.30437 l -0.304372,-0.0365 c -0.718319,-0.0852 -0.742669,-0.25567 -0.742669,-1.54621 v -4.33427 c 0,-1.29054 0.02435,-1.49751 0.742669,-1.55838 l 0.304372,-0.0244 c 0.07305,-0.0487 0.0487,-0.26785 -0.02435,-0.30438 -0.608745,0.0243 -1.022692,0.0365 -1.509688,0.0365 -0.511346,0 -0.925292,-0.0122 -1.534037,-0.0365 -0.07305,0.0365 -0.0974,0.25568 -0.02435,0.30438 l 0.304372,0.0244 c 0.718319,0.0609 0.742669,0.26784 0.742669,1.55838 z m 7.037085,-5.39348 c 0,-0.40177 -0.01217,-0.41395 0.353072,-0.41395 h 0.864413 c 0.66962,0 1.13227,0.0974 1.41229,0.30437 0.18263,0.13393 0.26785,0.5844 0.30438,0.88877 0.0609,0.0731 0.26784,0.0731 0.31654,-0.0243 -0.0365,-0.36525 0.0487,-1.35141 0.18263,-1.85058 -0.0243,-0.0487 -0.15828,-0.0609 -0.21915,-0.0365 -0.18263,0.31655 -0.2922,0.3409 -0.94964,0.3409 h -4.930838 c -0.560046,0 -0.961818,0.0122 -1.034867,-0.37742 -0.03652,-0.0365 -0.194798,-0.0244 -0.231323,0 -0.08522,0.48699 -0.267848,1.26619 -0.462646,1.81406 0.0487,0.0974 0.219148,0.15827 0.316547,0.0852 0.133924,-0.30437 0.255673,-0.57222 0.547871,-0.84007 0.304372,-0.28002 0.973992,-0.30437 1.497512,-0.30437 h 0.66962 c 0.365247,0 0.365247,0.0122 0.365247,0.3896 v 5.44218 c 0,1.27836 -0.06087,1.46099 -0.754844,1.52186 l -0.438296,0.0365 c -0.0974,0.0609 -0.07305,0.26784 0,0.30437 0.779193,-0.0243 1.205315,-0.0365 1.692311,-0.0365 0.486996,0 0.900942,0.0122 1.594916,0.0365 0.073,-0.0365 0.0974,-0.25568 0.0243,-0.30437 l -0.389601,-0.0365 c -0.706144,-0.0609 -0.730494,-0.2435 -0.730494,-1.52186 z m 7.791925,4.76038 c 0,-0.93746 0.0365,-1.04704 0.57222,-1.97233 l 0.76702,-1.32706 c 0.60874,-1.04705 0.97399,-1.81406 1.60709,-1.92364 l 0.34089,-0.0609 c 0.0852,-0.0731 0.073,-0.2435 -0.0243,-0.30438 -0.41394,0.0243 -0.75484,0.0365 -1.13226,0.0365 -0.37742,0 -0.7305,-0.0122 -1.16879,-0.0365 -0.0974,0.0487 -0.10958,0.21915 -0.0243,0.30438 l 0.21915,0.0244 c 0.29219,0.0365 0.51134,0.12175 0.51134,0.19479 0,0.1461 -0.45047,0.974 -0.79137,1.60709 -0.36524,0.70615 -0.76702,1.41229 -1.14444,2.05756 -0.47482,-0.84007 -0.92529,-1.80189 -1.37576,-2.70283 -0.0609,-0.12175 -0.37742,-0.81572 -0.37742,-0.93747 0,-0.0974 0.0852,-0.15827 0.51134,-0.21914 l 0.15828,-0.0244 c 0.0731,-0.0731 0.0731,-0.26785 -0.0365,-0.30438 -0.30437,0.0243 -0.74267,0.0365 -1.30271,0.0365 -0.5844,0 -1.02269,-0.0122 -1.41229,-0.0365 -0.0852,0.0487 -0.0974,0.21915 -0.0243,0.30438 l 0.3409,0.0609 c 0.36524,0.0609 0.54787,0.12175 0.96181,0.92529 l 1.43664,2.80023 c 0.35307,0.68179 0.3896,0.84007 0.3896,1.50969 v 0.62092 c 0,1.30271 -0.0243,1.47316 -0.7305,1.54621 l -0.37742,0.0365 c -0.0731,0.073 -0.0487,0.26784 0.0243,0.30437 0.64527,-0.0243 1.08357,-0.0365 1.59491,-0.0365 0.487,0 0.90095,0.0122 1.65579,0.0365 0.073,-0.0365 0.0974,-0.23133 0.0243,-0.30437 l -0.46265,-0.0365 c -0.65744,-0.0487 -0.73049,-0.2435 -0.73049,-1.54621 z m 10.83566,2.67848 c 2.34975,0 4.22469,-1.78971 4.22469,-4.24904 0,-2.14278 -1.41229,-4.17599 -4.22469,-4.17599 -2.50803,0 -4.33427,1.86276 -4.33427,4.29774 0,2.19148 1.63144,4.12729 4.33427,4.12729 z m 0.15827,-0.37742 c -2.39846,0 -3.27505,-2.33758 -3.27505,-4.13947 0,-2.6663 1.64361,-3.53072 2.9098,-3.53072 2.32541,0 3.21418,2.16713 3.21418,4.17599 0,2.39846 -1.38794,3.4942 -2.84893,3.4942 z m 7.18319,-6.98839 c 0,-0.46265 0,-0.487 0.36525,-0.487 h 0.74267 c 0.51134,0 0.91312,0 1.18096,0.073 0.60875,0.15827 0.75485,0.60875 0.85225,1.15662 0.0852,0.073 0.25567,0.0365 0.29219,-0.0365 -0.0243,-0.46265 -0.0365,-1.04704 -0.0365,-1.60709 -0.15827,0.0365 -0.86442,0.0365 -1.64361,0.0365 h -2.24018 c -0.487,0 -0.90095,-0.0122 -1.41229,-0.0365 -0.073,0.0365 -0.0974,0.25568 -0.0243,0.30438 l 0.1948,0.0244 c 0.70614,0.0852 0.73049,0.25567 0.73049,1.53403 v 4.38297 c 0,1.27836 -0.0243,1.43664 -0.73049,1.52186 l -0.30438,0.0365 c -0.0731,0.073 -0.0487,0.26784 0.0243,0.30437 0.57222,-0.0243 0.98617,-0.0365 1.52187,-0.0365 0.48699,0 0.90094,0.0122 1.61926,0.0365 0.073,-0.0365 0.0974,-0.25568 0.0243,-0.30437 l -0.41395,-0.0365 c -0.71832,-0.0609 -0.74267,-0.2435 -0.74267,-1.52186 v -1.69231 c 0,-0.31655 0.0365,-0.32873 0.40177,-0.32873 h 0.8279 c 0.46264,0 0.76702,0.0122 0.93746,0.0609 0.23133,0.073 0.32873,0.2435 0.3896,0.46265 l 0.12175,0.47482 c 0.0852,0.0731 0.26785,0.0731 0.31655,0 0,-0.28003 -0.0487,-0.74267 -0.0487,-1.18097 0,-0.45047 0.0487,-0.93747 0.0487,-1.22966 -0.0487,-0.0731 -0.25568,-0.0731 -0.31655,0 l -0.10957,0.48699 c -0.0731,0.31655 -0.17045,0.37742 -0.30438,0.42612 -0.1461,0.0487 -0.53569,0.0731 -1.03486,0.0731 h -0.8279 c -0.36524,0 -0.40177,0 -0.40177,-0.32872 z m 7.57279,3.202 c 0,1.57056 0.75484,2.67847 1.72883,3.34809 0.88877,0.59657 1.93581,0.81572 3.03155,0.81572 0.7792,0 1.65579,-0.18262 1.92364,-0.28002 0.13392,-0.0487 0.28002,-0.0974 0.42612,-0.12175 0.18262,-0.23132 0.49917,-1.03487 0.58439,-1.66796 -0.0487,-0.0852 -0.23132,-0.10958 -0.31654,-0.0487 -0.28003,0.71832 -0.974,1.74101 -2.54456,1.74101 -1.99668,0 -3.61594,-1.41229 -3.61594,-3.96902 0,-2.5202 1.58273,-3.70117 3.44549,-3.70117 1.76536,0 2.31323,0.94964 2.49586,1.77754 0.0852,0.073 0.26785,0.0609 0.32872,-0.0244 -0.0974,-0.74267 -0.15827,-1.50969 -0.17045,-1.78971 -0.10957,0.0122 -0.1948,-0.0122 -0.3409,-0.0487 -0.57222,-0.15828 -1.49751,-0.2922 -2.15495,-0.2922 -1.26619,0 -2.39846,0.3409 -3.28723,1.03487 -0.92529,0.71832 -1.53403,1.87493 -1.53403,3.22635 z m 12.83233,4.16381 c 2.34975,0 4.22469,-1.78971 4.22469,-4.24904 0,-2.14278 -1.41229,-4.17599 -4.22469,-4.17599 -2.50803,0 -4.33427,1.86276 -4.33427,4.29774 0,2.19148 1.63144,4.12729 4.33427,4.12729 z m 0.15827,-0.37742 c -2.39845,0 -3.27505,-2.33758 -3.27505,-4.13947 0,-2.6663 1.64361,-3.53072 2.9098,-3.53072 2.32541,0 3.21418,2.16713 3.21418,4.17599 0,2.39846 -1.38794,3.4942 -2.84893,3.4942 z m 7.18319,-7.07362 c 0,-0.38959 0.0122,-0.43829 0.65745,-0.43829 1.26619,0 1.96016,0.76701 1.96016,1.94798 0,1.05922 -0.47482,1.80189 -1.78971,2.04538 -0.073,0.0243 -0.073,0.20698 0.0122,0.2435 0.49917,0 1.14444,-0.10957 1.68014,-0.36525 0.52352,-0.25567 1.21749,-0.81571 1.21749,-1.9358 0,-0.84007 -0.41395,-1.47317 -0.97399,-1.82624 -0.57222,-0.35307 -1.32707,-0.487 -2.33758,-0.487 -1.01052,0 -1.76537,0.0122 -2.41064,0.0974 -0.0974,0.0487 -0.10957,0.23133 -0.0243,0.30438 l 0.43829,0.0487 c 0.54787,0.0609 0.57222,0.26784 0.57222,1.30271 v 4.49254 c 0,1.27836 -0.0243,1.42446 -0.73049,1.52186 l -0.25568,0.0365 c -0.073,0.073 -0.0487,0.26784 0.0243,0.30437 0.5357,-0.0243 0.974,-0.0365 1.48534,-0.0365 0.487,0 0.88877,0.0122 1.58274,0.0365 0.073,-0.0365 0.0974,-0.2435 0.0243,-0.30437 l -0.32872,-0.0365 c -0.7792,-0.0852 -0.80355,-0.2435 -0.80355,-1.52186 z m 5.5396,5.43001 c 0,1.27836 -0.0609,1.46099 -0.75485,1.52186 l -0.40177,0.0365 c -0.073,0.073 -0.0487,0.26784 0.0243,0.30437 0.71832,-0.0243 1.13227,-0.0365 1.65579,-0.0365 h 1.09574 c 1.08356,0 2.16713,0.0122 3.26287,0.0365 0.15827,-0.32872 0.46265,-1.26619 0.54787,-1.69231 -0.0487,-0.10958 -0.21915,-0.1461 -0.30437,-0.0852 -0.31655,0.6331 -0.64527,1.05922 -0.86442,1.18097 -0.26785,0.13392 -0.62092,0.18262 -1.55839,0.18262 -1.07139,0 -1.32706,-0.13392 -1.47316,-0.28002 -0.1948,-0.20698 -0.23132,-0.62092 -0.23132,-1.26619 v -1.71666 c 0,-0.31655 0.0365,-0.32872 0.40177,-0.32872 h 0.70614 c 0.47482,0 0.76702,0.0122 0.93747,0.0609 0.2435,0.0609 0.32872,0.2435 0.37742,0.46265 l 0.10958,0.47482 c 0.0609,0.073 0.26784,0.073 0.31654,-0.0122 0,-0.26785 -0.0487,-0.73049 -0.0487,-1.16879 0,-0.46264 0.0487,-0.93747 0.0487,-1.22966 -0.0487,-0.0852 -0.25567,-0.0852 -0.31654,-0.0122 l -0.0974,0.49917 c -0.0609,0.30438 -0.1461,0.37742 -0.2922,0.42612 -0.1461,0.0487 -0.52352,0.073 -1.03487,0.073 h -0.70614 c -0.36525,0 -0.40177,0 -0.40177,-0.34089 v -2.43498 c 0,-0.46265 0,-0.487 0.36524,-0.487 h 0.8766 c 0.53569,0 0.92529,0.0122 1.18096,0.073 0.6331,0.15827 0.74267,0.5844 0.92529,1.15662 0.0609,0.073 0.25568,0.0487 0.30438,-0.0244 -0.0487,-0.5357 -0.12175,-1.41229 -0.1948,-1.61927 -0.1461,0.0365 -0.86442,0.0365 -1.64361,0.0365 h -2.28888 c -0.49918,0 -0.91312,-0.0122 -1.43664,-0.0365 -0.0731,0.0365 -0.0974,0.25568 -0.0243,0.30438 l 0.1948,0.0244 c 0.71832,0.0852 0.74267,0.26784 0.74267,1.53403 z m 13.66023,-3.1533 c 0,-0.56005 -0.0243,-2.06973 0.18262,-2.50803 0.0487,-0.0974 0.2922,-0.1948 0.6818,-0.25567 l 0.17045,-0.0244 c 0.073,-0.0731 0.073,-0.2435 -0.0243,-0.30438 -0.41395,0.0243 -0.7305,0.0365 -1.25402,0.0365 -0.46264,0 -0.87659,-0.0122 -1.43664,-0.0365 -0.0974,0.0365 -0.10957,0.23133 -0.0243,0.30438 l 0.20698,0.0244 c 0.48699,0.0609 0.68179,0.13392 0.75484,0.24349 0.23132,0.36525 0.2435,1.94799 0.2435,2.52021 v 2.60543 c 0,0.25567 0,0.45047 -0.0487,0.51134 h -0.0243 c -0.57222,-0.58439 -1.16879,-1.26619 -2.00886,-2.20365 l -1.18096,-1.32707 c -0.40178,-0.45047 -1.83841,-2.05756 -2.08191,-2.67848 -0.15828,0.0243 -0.36525,0.0365 -0.56005,0.0365 -0.21915,0 -0.86442,0 -1.37576,-0.0365 -0.0974,0.0487 -0.0974,0.23133 -0.0243,0.30438 l 0.20697,0.0244 c 0.2922,0.0365 0.5844,0.12175 0.75485,0.29219 0.25567,0.28003 0.26784,0.5357 0.26784,0.8766 v 3.51854 c 0,0.5844 0.0122,2.06974 -0.15827,2.50803 -0.0609,0.13393 -0.25567,0.20698 -0.5357,0.2435 l -0.32872,0.0365 c -0.073,0.073 -0.0609,0.24349 0.0243,0.30437 0.42612,-0.0243 0.75485,-0.0365 1.26619,-0.0365 0.45047,0 0.87659,0.0122 1.42446,0.0365 0.0852,-0.0609 0.0974,-0.20698 0.0243,-0.30437 l -0.37742,-0.0365 c -0.30437,-0.0244 -0.54787,-0.0974 -0.62092,-0.23132 -0.20697,-0.36525 -0.21915,-1.94799 -0.21915,-2.52021 v -2.65413 c 0,-0.36524 0.0122,-0.64526 0.0609,-0.79136 h 0.0243 c 0.25567,0.26784 1.08356,1.26619 1.41229,1.64361 l 2.82457,3.21417 c 1.05922,1.20532 1.41229,1.63144 1.55839,1.83841 0.13392,0 0.20697,-0.0609 0.23132,-0.13392 -0.0365,-0.31655 -0.0365,-1.76536 -0.0365,-2.13061 z m 8.07197,1.04704 c 0.5844,0 0.60875,0.0244 0.60875,0.3896 v 1.71666 c 0,1.27836 0,1.40011 -0.74267,1.52186 l -0.23133,0.0365 c -0.073,0.073 -0.0487,0.26784 0.0243,0.30437 0.5357,-0.0243 0.974,-0.0365 1.47317,-0.0365 0.47482,0 0.88876,0.0122 1.47316,0.0365 0.073,-0.0365 0.0974,-0.25568 0.0243,-0.30437 l -0.2922,-0.0365 c -0.70614,-0.0852 -0.73049,-0.2435 -0.73049,-1.52186 v -4.38297 c 0,-1.27836 0.0243,-1.46098 0.73049,-1.53403 l 0.25567,-0.0244 c 0.073,-0.0487 0.0487,-0.26785 -0.0243,-0.30438 -0.54787,0.0243 -0.96181,0.0365 -1.43663,0.0365 -0.49917,0 -0.91312,-0.0122 -1.47317,-0.0365 -0.073,0.0365 -0.0974,0.25568 -0.0243,0.30438 l 0.23133,0.0244 c 0.71832,0.073 0.74267,0.25567 0.74267,1.53403 v 1.40012 c 0,0.37742 -0.0243,0.38959 -0.60875,0.38959 h -3.48202 c -0.5844,0 -0.60875,-0.0122 -0.60875,-0.38959 v -1.40012 c 0,-1.27836 0.0244,-1.46098 0.7305,-1.53403 l 0.23132,-0.0244 c 0.073,-0.0487 0.0487,-0.26785 -0.0243,-0.30438 -0.52352,0.0243 -0.93747,0.0365 -1.41229,0.0365 -0.52352,0 -0.93746,-0.0243 -1.53403,-0.0365 -0.073,0.0365 -0.0974,0.25568 -0.0243,0.30438 l 0.31654,0.0244 c 0.6331,0.0487 0.71832,0.25567 0.71832,1.53403 v 4.38297 c 0,1.27836 -0.0243,1.40011 -0.70614,1.52186 l -0.20698,0.0365 c -0.073,0.073 -0.0487,0.26784 0.0243,0.30437 0.47483,-0.0122 0.88877,-0.0365 1.41229,-0.0365 0.47482,0 0.88877,0.0122 1.54622,0.0365 0.073,-0.0365 0.0974,-0.25568 0.0243,-0.30437 l -0.35307,-0.0365 c -0.68179,-0.0731 -0.74267,-0.2435 -0.74267,-1.52186 v -1.71666 c 0,-0.36525 0.0244,-0.3896 0.60875,-0.3896 z m 8.65634,2.7637 c 0.0974,0.2922 0.15828,0.51135 0.15828,0.64527 0,0.12175 -0.17045,0.1948 -0.42613,0.21915 l -0.35307,0.0365 c -0.0852,0.0609 -0.073,0.25567 0.0243,0.30437 0.35307,-0.0122 0.81572,-0.0365 1.40012,-0.0365 0.54787,0 0.97399,0.0122 1.47316,0.0365 0.0609,-0.0487 0.0852,-0.2435 0,-0.30437 l -0.32872,-0.0365 c -0.52352,-0.0609 -0.6818,-0.2435 -1.03487,-1.29054 l -1.66796,-4.89431 c -0.18262,-0.53569 -0.37742,-1.09574 -0.5357,-1.63144 -0.0243,-0.0852 -0.10957,-0.10957 -0.18262,-0.10957 -0.13392,0.15827 -0.3409,0.37742 -0.6331,0.46265 0.0365,0.1948 -0.0365,0.42612 -0.20697,0.86441 l -1.24184,3.28723 c -0.51134,1.36359 -0.85224,2.15495 -1.07139,2.715 -0.17045,0.4383 -0.4383,0.57222 -0.73049,0.59657 l -0.40178,0.0365 c -0.073,0.0609 -0.0487,0.25567 0.0243,0.30437 0.32873,-0.0122 0.76702,-0.0365 1.1688,-0.0365 0.57222,0.0122 0.94964,0.0122 1.26618,0.0365 0.10958,-0.0487 0.10958,-0.2435 0.0243,-0.30437 l -0.40177,-0.0365 c -0.29219,-0.0244 -0.35307,-0.0974 -0.35307,-0.2435 0,-0.13392 0.0852,-0.46264 0.26785,-1.01051 l 0.42612,-1.27837 c 0.0852,-0.25567 0.15827,-0.2922 0.46265,-0.2922 h 1.83841 c 0.36524,0 0.41394,0.0365 0.49917,0.30438 z m -2.1793,-4.85778 c 0.13392,-0.36525 0.25567,-0.65745 0.29219,-0.71832 h 0.0243 c 0.073,0.1461 0.18263,0.47482 0.28003,0.76702 l 0.65744,1.98451 c 0.10957,0.32872 0.0852,0.37742 -0.26785,0.37742 h -1.49751 c -0.3409,0 -0.35307,-0.0122 -0.25567,-0.2922 z m 12.01663,4.10294 c 0,-0.62092 0.0122,-0.96182 0.52352,-1.02269 l 0.1948,-0.0243 c 0.0852,-0.0731 0.073,-0.25568 -0.0122,-0.30438 -0.40178,0.0244 -0.81572,0.0365 -1.29054,0.0365 -0.71832,0 -1.38794,-0.0122 -1.74101,-0.0365 -0.0852,0.0365 -0.0974,0.25568 0,0.30438 l 0.53569,0.0609 c 0.75484,0.0852 0.79137,0.15828 0.79137,1.18097 v 0.48699 c 0,0.3896 -0.0609,0.60875 -0.12175,0.69397 -0.13392,0.20698 -0.58439,0.36525 -1.33924,0.36525 -2.44715,0 -3.65247,-1.83841 -3.65247,-4.17599 0,-1.82624 1.03487,-3.50637 3.3968,-3.50637 1.24184,0 2.15496,0.41394 2.49585,1.72883 0.073,0.073 0.2922,0.0609 0.32873,-0.0365 -0.10958,-0.7305 -0.18263,-1.36359 -0.18263,-1.76536 -0.1461,0.0244 -0.52352,-0.0609 -0.75484,-0.10958 -0.20698,-0.0487 -0.85225,-0.18262 -1.54621,-0.18262 -1.83841,0 -3.04373,0.57222 -3.85945,1.42446 -0.75484,0.80355 -1.09574,1.85059 -1.09574,2.88546 0,1.07139 0.3896,2.0332 1.12009,2.7637 0.93747,0.94964 2.26453,1.35141 3.71335,1.35141 0.65744,0 1.53403,-0.1461 2.1793,-0.31655 0.23133,-0.0609 0.45048,-0.10957 0.59657,-0.10957 0.0487,-0.0365 0.0487,-0.10957 0.0122,-0.1461 -0.21915,-0.0852 -0.2922,-0.37742 -0.2922,-0.86442 z m 2.7637,0.0974 c 0,1.27836 -0.0609,1.46099 -0.75484,1.52186 l -0.40177,0.0365 c -0.073,0.073 -0.0487,0.26784 0.0244,0.30437 0.71832,-0.0243 1.13226,-0.0365 1.65578,-0.0365 h 1.09575 c 1.08356,0 2.16713,0.0122 3.26287,0.0365 0.15827,-0.32872 0.46264,-1.26619 0.54787,-1.69231 -0.0487,-0.10958 -0.21915,-0.1461 -0.30437,-0.0852 -0.31655,0.6331 -0.64527,1.05922 -0.86442,1.18097 -0.26785,0.13392 -0.62092,0.18262 -1.55839,0.18262 -1.07139,0 -1.32706,-0.13392 -1.47316,-0.28002 -0.1948,-0.20698 -0.23132,-0.62092 -0.23132,-1.26619 v -1.71666 c 0,-0.31655 0.0365,-0.32872 0.40177,-0.32872 h 0.70614 c 0.47482,0 0.76702,0.0122 0.93747,0.0609 0.2435,0.0609 0.32872,0.2435 0.37742,0.46265 l 0.10957,0.47482 c 0.0609,0.073 0.26785,0.073 0.31655,-0.0122 0,-0.26785 -0.0487,-0.73049 -0.0487,-1.16879 0,-0.46264 0.0487,-0.93747 0.0487,-1.22966 -0.0487,-0.0852 -0.25567,-0.0852 -0.31655,-0.0122 l -0.0974,0.49917 c -0.0609,0.30438 -0.1461,0.37742 -0.2922,0.42612 -0.1461,0.0487 -0.52352,0.073 -1.03487,0.073 h -0.70614 c -0.36525,0 -0.40177,0 -0.40177,-0.34089 v -2.43498 c 0,-0.46265 0,-0.487 0.36524,-0.487 h 0.8766 c 0.53569,0 0.92529,0.0122 1.18096,0.073 0.6331,0.15827 0.74267,0.5844 0.92529,1.15662 0.0609,0.073 0.25568,0.0487 0.30438,-0.0244 -0.0487,-0.5357 -0.12175,-1.41229 -0.1948,-1.61927 -0.1461,0.0365 -0.86442,0.0365 -1.64361,0.0365 h -2.28889 c -0.49917,0 -0.91311,-0.0122 -1.43663,-0.0365 -0.073,0.0365 -0.0974,0.25568 -0.0243,0.30438 l 0.19479,0.0244 c 0.71832,0.0852 0.74267,0.26784 0.74267,1.53403 z m 13.66024,-3.1533 c 0,-0.56005 -0.0243,-2.06973 0.18262,-2.50803 0.0487,-0.0974 0.2922,-0.1948 0.6818,-0.25567 l 0.17044,-0.0244 c 0.073,-0.0731 0.073,-0.2435 -0.0244,-0.30438 -0.41394,0.0243 -0.73049,0.0365 -1.25401,0.0365 -0.46265,0 -0.87659,-0.0122 -1.43664,-0.0365 -0.0974,0.0365 -0.10957,0.23133 -0.0243,0.30438 l 0.20697,0.0244 c 0.487,0.0609 0.6818,0.13392 0.75485,0.24349 0.23132,0.36525 0.2435,1.94799 0.2435,2.52021 v 2.60543 c 0,0.25567 0,0.45047 -0.0487,0.51134 h -0.0243 c -0.57222,-0.58439 -1.16879,-1.26619 -2.00886,-2.20365 l -1.18097,-1.32707 c -0.40177,-0.45047 -1.83841,-2.05756 -2.0819,-2.67848 -0.15828,0.0243 -0.36525,0.0365 -0.56005,0.0365 -0.21915,0 -0.86442,0 -1.37576,-0.0365 -0.0974,0.0487 -0.0974,0.23133 -0.0243,0.30438 l 0.20697,0.0244 c 0.2922,0.0365 0.5844,0.12175 0.75484,0.29219 0.25568,0.28003 0.26785,0.5357 0.26785,0.8766 v 3.51854 c 0,0.5844 0.0122,2.06974 -0.15827,2.50803 -0.0609,0.13393 -0.25568,0.20698 -0.5357,0.2435 l -0.32872,0.0365 c -0.073,0.073 -0.0609,0.24349 0.0243,0.30437 0.42612,-0.0243 0.75484,-0.0365 1.26619,-0.0365 0.45047,0 0.87659,0.0122 1.42446,0.0365 0.0852,-0.0609 0.0974,-0.20698 0.0243,-0.30437 l -0.37742,-0.0365 c -0.30437,-0.0244 -0.54787,-0.0974 -0.62092,-0.23132 -0.20697,-0.36525 -0.21915,-1.94799 -0.21915,-2.52021 v -2.65413 c 0,-0.36524 0.0122,-0.64526 0.0609,-0.79136 h 0.0243 c 0.25567,0.26784 1.08356,1.26619 1.41229,1.64361 l 2.82457,3.21417 c 1.05922,1.20532 1.41229,1.63144 1.55839,1.83841 0.13392,0 0.20697,-0.0609 0.23132,-0.13392 -0.0365,-0.31655 -0.0365,-1.76536 -0.0365,-2.13061 z"
       id="text1-5"
       style="font-size:12.1749px;line-height:1.55;font-family:'Adobe Garamond Pro';-inkscape-font-specification:'Adobe Garamond Pro, Normal';fill:#901a1e;stroke-width:0.992803"
       transform="scale(1.0150486,0.9851745)"
       aria-label="UNIVERSITY OF COPENHAGEN" /></g></svg>
